<?xml version="1.0" encoding="utf-8"?>
<!-- Generator: Adobe Illustrator 17.0.0, SVG Export Plug-In . SVG Version: 6.00 Build 0)  -->
<!DOCTYPE svg PUBLIC "-//W3C//DTD SVG 1.0//EN" "http://www.w3.org/TR/2001/REC-SVG-20010904/DTD/svg10.dtd">
<svg version="1.0" xmlns="http://www.w3.org/2000/svg" xmlns:xlink="http://www.w3.org/1999/xlink" x="0px" y="0px" width="830px"
	 height="470px" viewBox="0 0 830 470" enable-background="new 0 0 830 470" xml:space="preserve">
<g id="Layer_1" display="none">
	
		<image display="inline" overflow="visible" width="1665" height="2705" xlink:href="home_blank.png"  transform="matrix(0.9999 0 0 0.9999 -163.8959 -1282.0273)">
	</image>
	<rect x="752.87" y="-837.637" display="inline" fill="#FFFFFF" width="429.096" height="68.669"/>
	<rect x="524.098" y="-690.399" display="inline" fill="#F6F6F6" width="976.798" height="554.972"/>
	<rect x="-163.896" y="-135.427" display="inline" fill="#FFFFFF" width="791.488" height="604.97"/>
</g>
<g id="Layer_3">
</g>
<g id="Layer_2">
	<linearGradient id="SVGID_1_" gradientUnits="userSpaceOnUse" x1="47.1995" y1="108.941" x2="440.1243" y2="501.8658">
		<stop  offset="0" style="stop-color:#000000;stop-opacity:0.1"/>
		<stop  offset="1" style="stop-color:#000000;stop-opacity:0.02"/>
	</linearGradient>
	<polygon opacity="0.5" fill="url(#SVGID_1_)" points="600.27,469.224 49,469.637 51.667,437.808 404.822,107.667 604.985,307.831 	
		"/>
	<g>
		<rect x="114.971" y="120.034" fill="#F8BB15" width="96.52" height="350.234"/>
		<polygon fill="#FFEE58" points="211.491,85.093 198.44,85.093 198.44,97.778 128.022,97.778 128.022,85.093 114.971,85.093 
			114.971,120.034 211.491,120.034 		"/>
		<rect x="128.022" y="87.703" fill="#E6E7E8" width="70.419" height="22.76"/>
	</g>
	<rect x="114.971" y="180.402" fill="#FFEE58" width="96.52" height="9.437"/>
	<g>
		<path fill="#E94435" d="M523.935,246.105c0,30.551-21.662,55.317-48.384,55.317c-26.722,0-48.384-24.766-48.384-55.317
			s23.499-34.871,48.384-34.871C500.436,211.235,523.935,215.365,523.935,246.105z"/>
		<rect x="469.632" y="198.434" fill="#795548" width="11.714" height="25.603"/>
		<path fill="#19B550" d="M520.825,181.865c0,0,1.832,20.089-9.428,31.35c-11.261,11.261-31.35,9.428-31.35,9.428
			s-1.832-20.089,9.428-31.35C500.735,180.032,520.825,181.865,520.825,181.865z"/>
	</g>
	<linearGradient id="SVGID_2_" gradientUnits="userSpaceOnUse" x1="479.7576" y1="313.1367" x2="769.2096" y2="602.5887">
		<stop  offset="0" style="stop-color:#000000;stop-opacity:0.1"/>
		<stop  offset="1" style="stop-color:#000000;stop-opacity:0.02"/>
	</linearGradient>
	<polygon opacity="0.5" fill="url(#SVGID_2_)" points="811.136,469.778 461.852,469.969 446.075,454.191 642.27,300.911 	"/>
	<polygon fill="#19B550" points="711.054,470.087 711.054,456.415 432.305,456.415 432.305,393.107 711.054,393.107 
		711.054,379.435 403.76,379.435 403.76,470.087 	"/>
	<rect x="419.017" y="393.107" fill="#E6E7E8" width="289.303" height="63.308"/>
	<g>
		<polygon fill="#F8BB15" points="644.687,380.302 644.687,366.631 432.305,366.631 432.305,313.783 644.687,313.783 
			644.687,300.112 403.76,300.112 403.76,380.302 		"/>
		<rect x="419.017" y="313.783" fill="#E6E7E8" width="222.936" height="52.848"/>
	</g>
	<rect x="211.267" y="105.231" fill="#19B550" width="96.52" height="365.037"/>
	<rect x="211.267" y="159.89" fill="#3DD975" width="96.52" height="19.694"/>
	<polygon fill="#3DD975" points="307.786,70.29 294.736,70.29 294.736,82.975 224.317,82.975 224.317,70.29 211.267,70.29 
		211.267,105.231 307.786,105.231 	"/>
	<rect x="224.317" y="72.9" fill="#E6E7E8" width="70.419" height="22.76"/>
	<rect x="18.451" y="140.034" fill="#E94435" width="96.52" height="330.234"/>
	<rect x="114.971" y="196.036" fill="#FFEE58" width="96.52" height="9.437"/>
	<rect x="114.971" y="384.94" fill="#FFEE58" width="96.52" height="9.437"/>
	<rect x="114.971" y="400.575" fill="#FFEE58" width="96.52" height="9.437"/>
	<rect x="211.267" y="192.516" fill="#3DD975" width="96.52" height="19.694"/>
	<rect x="18.451" y="342.652" fill="#FF5C45" width="96.52" height="51.095"/>
	<polygon fill="#FF5C45" points="18.451,105.093 31.502,105.093 31.502,117.778 101.921,117.778 101.921,105.093 114.971,105.093 
		114.971,140.034 18.451,140.034 	"/>
	<rect x="31.502" y="107.703" fill="#E6E7E8" width="70.419" height="22.76"/>
	<rect x="307.786" y="140.034" fill="#458CF5" width="96.52" height="330.234"/>
	<polygon fill="#75ADFF" points="307.786,105.093 320.837,105.093 320.837,117.778 391.256,117.778 391.256,105.093 
		404.306,105.093 404.306,140.034 307.786,140.034 	"/>
	<rect x="320.837" y="107.703" fill="#E6E7E8" width="70.419" height="22.76"/>
	<rect x="307.786" y="168.414" fill="#75ADFF" width="96.52" height="33.413"/>
	<rect x="307.786" y="386.417" fill="#75ADFF" width="96.52" height="33.413"/>
</g>
</svg>