<?xml version="1.0" encoding="utf-8"?>
<!-- Generator: Adobe Illustrator 18.0.0, SVG Export Plug-In . SVG Version: 6.00 Build 0)  -->
<!DOCTYPE svg PUBLIC "-//W3C//DTD SVG 1.1//EN" "http://www.w3.org/Graphics/SVG/1.1/DTD/svg11.dtd">
<svg version="1.1" id="Layer_1" xmlns="http://www.w3.org/2000/svg" xmlns:xlink="http://www.w3.org/1999/xlink" x="0px" y="0px"
	 viewBox="0 0 600 452" enable-background="new 0 0 600 452" xml:space="preserve">
<g id="Layer_2">
	<rect x="-1" y="-0.2" fill="#FDD838" width="600" height="452.3"/>
	<g>
		<g>
			<g>
				
					<line fill="none" stroke="#FEBC11" stroke-width="5.2403" stroke-linecap="round" stroke-miterlimit="10" x1="21.4" y1="18.3" x2="21.4" y2="18.3"/>
				
					<line fill="none" stroke="#FEBC11" stroke-width="5.2403" stroke-linecap="round" stroke-miterlimit="10" stroke-dasharray="0,20.6432" x1="42" y1="18.3" x2="568.4" y2="18.3"/>
				
					<line fill="none" stroke="#FEBC11" stroke-width="5.2403" stroke-linecap="round" stroke-miterlimit="10" x1="578.8" y1="18.3" x2="578.8" y2="18.3"/>
			</g>
		</g>
		<g>
			<g>
				
					<line fill="none" stroke="#FEBC11" stroke-width="5.2403" stroke-linecap="round" stroke-miterlimit="10" x1="21.4" y1="38.2" x2="21.4" y2="38.2"/>
				
					<line fill="none" stroke="#FEBC11" stroke-width="5.2403" stroke-linecap="round" stroke-miterlimit="10" stroke-dasharray="0,20.6432" x1="42" y1="38.2" x2="568.4" y2="38.2"/>
				
					<line fill="none" stroke="#FEBC11" stroke-width="5.2403" stroke-linecap="round" stroke-miterlimit="10" x1="578.8" y1="38.2" x2="578.8" y2="38.2"/>
			</g>
		</g>
		<g>
			<g>
				
					<line fill="none" stroke="#FEBC11" stroke-width="5.2403" stroke-linecap="round" stroke-miterlimit="10" x1="21.4" y1="58" x2="21.4" y2="58"/>
				
					<line fill="none" stroke="#FEBC11" stroke-width="5.2403" stroke-linecap="round" stroke-miterlimit="10" stroke-dasharray="0,20.6432" x1="42" y1="58" x2="568.4" y2="58"/>
				
					<line fill="none" stroke="#FEBC11" stroke-width="5.2403" stroke-linecap="round" stroke-miterlimit="10" x1="578.8" y1="58" x2="578.8" y2="58"/>
			</g>
		</g>
		<g>
			<g>
				
					<line fill="none" stroke="#FEBC11" stroke-width="5.2403" stroke-linecap="round" stroke-miterlimit="10" x1="21.4" y1="77.8" x2="21.4" y2="77.8"/>
				
					<line fill="none" stroke="#FEBC11" stroke-width="5.2403" stroke-linecap="round" stroke-miterlimit="10" stroke-dasharray="0,20.6432" x1="42" y1="77.8" x2="568.4" y2="77.8"/>
				
					<line fill="none" stroke="#FEBC11" stroke-width="5.2403" stroke-linecap="round" stroke-miterlimit="10" x1="578.8" y1="77.8" x2="578.8" y2="77.8"/>
			</g>
		</g>
		<g>
			<g>
				
					<line fill="none" stroke="#FEBC11" stroke-width="5.2403" stroke-linecap="round" stroke-miterlimit="10" x1="21.4" y1="97.6" x2="21.4" y2="97.6"/>
				
					<line fill="none" stroke="#FEBC11" stroke-width="5.2403" stroke-linecap="round" stroke-miterlimit="10" stroke-dasharray="0,20.6432" x1="42" y1="97.6" x2="568.4" y2="97.6"/>
				
					<line fill="none" stroke="#FEBC11" stroke-width="5.2403" stroke-linecap="round" stroke-miterlimit="10" x1="578.8" y1="97.6" x2="578.8" y2="97.6"/>
			</g>
		</g>
		<g>
			<g>
				
					<line fill="none" stroke="#FEBC11" stroke-width="5.2403" stroke-linecap="round" stroke-miterlimit="10" x1="21.4" y1="117.4" x2="21.4" y2="117.4"/>
				
					<line fill="none" stroke="#FEBC11" stroke-width="5.2403" stroke-linecap="round" stroke-miterlimit="10" stroke-dasharray="0,20.6432" x1="42" y1="117.4" x2="568.4" y2="117.4"/>
				
					<line fill="none" stroke="#FEBC11" stroke-width="5.2403" stroke-linecap="round" stroke-miterlimit="10" x1="578.8" y1="117.4" x2="578.8" y2="117.4"/>
			</g>
		</g>
		<g>
			<g>
				
					<line fill="none" stroke="#FEBC11" stroke-width="5.2403" stroke-linecap="round" stroke-miterlimit="10" x1="21.4" y1="137.2" x2="21.4" y2="137.2"/>
				
					<line fill="none" stroke="#FEBC11" stroke-width="5.2403" stroke-linecap="round" stroke-miterlimit="10" stroke-dasharray="0,20.6432" x1="42" y1="137.2" x2="568.4" y2="137.2"/>
				
					<line fill="none" stroke="#FEBC11" stroke-width="5.2403" stroke-linecap="round" stroke-miterlimit="10" x1="578.8" y1="137.2" x2="578.8" y2="137.2"/>
			</g>
		</g>
		<g>
			<g>
				
					<line fill="none" stroke="#FEBC11" stroke-width="5.2403" stroke-linecap="round" stroke-miterlimit="10" x1="21.4" y1="157.1" x2="21.4" y2="157.1"/>
				
					<line fill="none" stroke="#FEBC11" stroke-width="5.2403" stroke-linecap="round" stroke-miterlimit="10" stroke-dasharray="0,20.6432" x1="42" y1="157.1" x2="568.4" y2="157.1"/>
				
					<line fill="none" stroke="#FEBC11" stroke-width="5.2403" stroke-linecap="round" stroke-miterlimit="10" x1="578.8" y1="157.1" x2="578.8" y2="157.1"/>
			</g>
		</g>
		<g>
			<g>
				
					<line fill="none" stroke="#FEBC11" stroke-width="5.2403" stroke-linecap="round" stroke-miterlimit="10" x1="21.4" y1="176.9" x2="21.4" y2="176.9"/>
				
					<line fill="none" stroke="#FEBC11" stroke-width="5.2403" stroke-linecap="round" stroke-miterlimit="10" stroke-dasharray="0,20.6432" x1="42" y1="176.9" x2="568.4" y2="176.9"/>
				
					<line fill="none" stroke="#FEBC11" stroke-width="5.2403" stroke-linecap="round" stroke-miterlimit="10" x1="578.8" y1="176.9" x2="578.8" y2="176.9"/>
			</g>
		</g>
		<g>
			<g>
				
					<line fill="none" stroke="#FEBC11" stroke-width="5.2403" stroke-linecap="round" stroke-miterlimit="10" x1="21.4" y1="196.7" x2="21.4" y2="196.7"/>
				
					<line fill="none" stroke="#FEBC11" stroke-width="5.2403" stroke-linecap="round" stroke-miterlimit="10" stroke-dasharray="0,20.6432" x1="42" y1="196.7" x2="568.4" y2="196.7"/>
				
					<line fill="none" stroke="#FEBC11" stroke-width="5.2403" stroke-linecap="round" stroke-miterlimit="10" x1="578.8" y1="196.7" x2="578.8" y2="196.7"/>
			</g>
		</g>
		<g>
			<g>
				
					<line fill="none" stroke="#FEBC11" stroke-width="5.2403" stroke-linecap="round" stroke-miterlimit="10" x1="21.4" y1="216.5" x2="21.4" y2="216.5"/>
				
					<line fill="none" stroke="#FEBC11" stroke-width="5.2403" stroke-linecap="round" stroke-miterlimit="10" stroke-dasharray="0,20.6432" x1="42" y1="216.5" x2="568.4" y2="216.5"/>
				
					<line fill="none" stroke="#FEBC11" stroke-width="5.2403" stroke-linecap="round" stroke-miterlimit="10" x1="578.8" y1="216.5" x2="578.8" y2="216.5"/>
			</g>
		</g>
		<g>
			<g>
				
					<line fill="none" stroke="#FEBC11" stroke-width="5.2403" stroke-linecap="round" stroke-miterlimit="10" x1="21.4" y1="236.3" x2="21.4" y2="236.3"/>
				
					<line fill="none" stroke="#FEBC11" stroke-width="5.2403" stroke-linecap="round" stroke-miterlimit="10" stroke-dasharray="0,20.6432" x1="42" y1="236.3" x2="568.4" y2="236.3"/>
				
					<line fill="none" stroke="#FEBC11" stroke-width="5.2403" stroke-linecap="round" stroke-miterlimit="10" x1="578.8" y1="236.3" x2="578.8" y2="236.3"/>
			</g>
		</g>
		<g>
			<g>
				
					<line fill="none" stroke="#FEBC11" stroke-width="5.2403" stroke-linecap="round" stroke-miterlimit="10" x1="21.4" y1="256.1" x2="21.4" y2="256.1"/>
				
					<line fill="none" stroke="#FEBC11" stroke-width="5.2403" stroke-linecap="round" stroke-miterlimit="10" stroke-dasharray="0,20.6432" x1="42" y1="256.1" x2="568.4" y2="256.1"/>
				
					<line fill="none" stroke="#FEBC11" stroke-width="5.2403" stroke-linecap="round" stroke-miterlimit="10" x1="578.8" y1="256.1" x2="578.8" y2="256.1"/>
			</g>
		</g>
		<g>
			<g>
				
					<line fill="none" stroke="#FEBC11" stroke-width="5.2403" stroke-linecap="round" stroke-miterlimit="10" x1="21.4" y1="276" x2="21.4" y2="276"/>
				
					<line fill="none" stroke="#FEBC11" stroke-width="5.2403" stroke-linecap="round" stroke-miterlimit="10" stroke-dasharray="0,20.6432" x1="42" y1="276" x2="568.4" y2="276"/>
				
					<line fill="none" stroke="#FEBC11" stroke-width="5.2403" stroke-linecap="round" stroke-miterlimit="10" x1="578.8" y1="276" x2="578.8" y2="276"/>
			</g>
		</g>
		<g>
			<g>
				
					<line fill="none" stroke="#FEBC11" stroke-width="5.2403" stroke-linecap="round" stroke-miterlimit="10" x1="21.4" y1="295.8" x2="21.4" y2="295.8"/>
				
					<line fill="none" stroke="#FEBC11" stroke-width="5.2403" stroke-linecap="round" stroke-miterlimit="10" stroke-dasharray="0,20.6432" x1="42" y1="295.8" x2="568.4" y2="295.8"/>
				
					<line fill="none" stroke="#FEBC11" stroke-width="5.2403" stroke-linecap="round" stroke-miterlimit="10" x1="578.8" y1="295.8" x2="578.8" y2="295.8"/>
			</g>
		</g>
		<g>
			<g>
				
					<line fill="none" stroke="#FEBC11" stroke-width="5.2403" stroke-linecap="round" stroke-miterlimit="10" x1="21.4" y1="315.6" x2="21.4" y2="315.6"/>
				
					<line fill="none" stroke="#FEBC11" stroke-width="5.2403" stroke-linecap="round" stroke-miterlimit="10" stroke-dasharray="0,20.6432" x1="42" y1="315.6" x2="568.4" y2="315.6"/>
				
					<line fill="none" stroke="#FEBC11" stroke-width="5.2403" stroke-linecap="round" stroke-miterlimit="10" x1="578.8" y1="315.6" x2="578.8" y2="315.6"/>
			</g>
		</g>
		<g>
			<g>
				
					<line fill="none" stroke="#FEBC11" stroke-width="5.2403" stroke-linecap="round" stroke-miterlimit="10" x1="21.4" y1="335.4" x2="21.4" y2="335.4"/>
				
					<line fill="none" stroke="#FEBC11" stroke-width="5.2403" stroke-linecap="round" stroke-miterlimit="10" stroke-dasharray="0,20.6432" x1="42" y1="335.4" x2="568.4" y2="335.4"/>
				
					<line fill="none" stroke="#FEBC11" stroke-width="5.2403" stroke-linecap="round" stroke-miterlimit="10" x1="578.8" y1="335.4" x2="578.8" y2="335.4"/>
			</g>
		</g>
		<g>
			<g>
				
					<line fill="none" stroke="#FEBC11" stroke-width="5.2403" stroke-linecap="round" stroke-miterlimit="10" x1="21.4" y1="355.2" x2="21.4" y2="355.2"/>
				
					<line fill="none" stroke="#FEBC11" stroke-width="5.2403" stroke-linecap="round" stroke-miterlimit="10" stroke-dasharray="0,20.6432" x1="42" y1="355.2" x2="568.4" y2="355.2"/>
				
					<line fill="none" stroke="#FEBC11" stroke-width="5.2403" stroke-linecap="round" stroke-miterlimit="10" x1="578.8" y1="355.2" x2="578.8" y2="355.2"/>
			</g>
		</g>
		<g>
			<g>
				
					<line fill="none" stroke="#FEBC11" stroke-width="5.2403" stroke-linecap="round" stroke-miterlimit="10" x1="21.4" y1="375" x2="21.4" y2="375"/>
				
					<line fill="none" stroke="#FEBC11" stroke-width="5.2403" stroke-linecap="round" stroke-miterlimit="10" stroke-dasharray="0,20.6432" x1="42" y1="375" x2="568.4" y2="375"/>
				
					<line fill="none" stroke="#FEBC11" stroke-width="5.2403" stroke-linecap="round" stroke-miterlimit="10" x1="578.8" y1="375" x2="578.8" y2="375"/>
			</g>
		</g>
		<g>
			<g>
				
					<line fill="none" stroke="#FEBC11" stroke-width="5.2403" stroke-linecap="round" stroke-miterlimit="10" x1="21.4" y1="394.9" x2="21.4" y2="394.9"/>
				
					<line fill="none" stroke="#FEBC11" stroke-width="5.2403" stroke-linecap="round" stroke-miterlimit="10" stroke-dasharray="0,20.6432" x1="42" y1="394.9" x2="568.4" y2="394.9"/>
				
					<line fill="none" stroke="#FEBC11" stroke-width="5.2403" stroke-linecap="round" stroke-miterlimit="10" x1="578.8" y1="394.9" x2="578.8" y2="394.9"/>
			</g>
		</g>
		<g>
			<g>
				
					<line fill="none" stroke="#FEBC11" stroke-width="5.2403" stroke-linecap="round" stroke-miterlimit="10" x1="21.4" y1="414.7" x2="21.4" y2="414.7"/>
				
					<line fill="none" stroke="#FEBC11" stroke-width="5.2403" stroke-linecap="round" stroke-miterlimit="10" stroke-dasharray="0,20.6432" x1="42" y1="414.7" x2="568.4" y2="414.7"/>
				
					<line fill="none" stroke="#FEBC11" stroke-width="5.2403" stroke-linecap="round" stroke-miterlimit="10" x1="578.8" y1="414.7" x2="578.8" y2="414.7"/>
			</g>
		</g>
		<g>
			<g>
				
					<line fill="none" stroke="#FEBC11" stroke-width="5.2403" stroke-linecap="round" stroke-miterlimit="10" x1="21.4" y1="434.5" x2="21.4" y2="434.5"/>
				
					<line fill="none" stroke="#FEBC11" stroke-width="5.2403" stroke-linecap="round" stroke-miterlimit="10" stroke-dasharray="0,20.6432" x1="42" y1="434.5" x2="568.4" y2="434.5"/>
				
					<line fill="none" stroke="#FEBC11" stroke-width="5.2403" stroke-linecap="round" stroke-miterlimit="10" x1="578.8" y1="434.5" x2="578.8" y2="434.5"/>
			</g>
		</g>
	</g>
	<g>
		<g opacity="0.2">
			<polygon fill="#BA5B27" points="76.2,180.1 59.4,180.1 59.4,141 102.3,98 102.3,75.7 119.2,75.7 119.2,105 76.2,147.9 			"/>
			<polygon fill="#BA5B27" points="116.4,180.1 99.5,180.1 99.5,147.9 56.5,105 56.5,75.7 73.4,75.7 73.4,98 116.4,141 			"/>
			<path fill="#BA5B27" d="M268.8,81c0-18.6,11-34.7,26.8-42v43.7L315.4,94l19.8-11.3V39.2c15.6,7.5,26.4,23.4,26.4,41.8
				s-10.8,34.4-26.4,41.8v146h-40v-146C279.6,115.4,268.8,99.4,268.8,81z"/>
			<rect x="395.9" y="39" fill="#BA5B27" width="25.3" height="35.1"/>
			<rect x="400.9" y="64.2" fill="#BA5B27" width="15.2" height="128.1"/>
			<rect x="389.1" y="175.7" fill="#BA5B27" width="38.8" height="108.1"/>
			<path fill="#BA5B27" d="M437.6,281.1c0,1.5-1.2,2.7-2.7,2.7h-52.7c-1.5,0-2.7-1.2-2.7-2.7v-88.3c0-1.5,1.2-2.7,2.7-2.7h52.7
				c1.5,0,2.7,1.2,2.7,2.7V281.1z"/>
			<path fill="#BA5B27" d="M437.6,180.7c0,1.5-1.2,2.7-2.7,2.7h-52.7c-1.5,0-2.7-1.2-2.7-2.7v-10c0-1.5,1.2-2.7,2.7-2.7h52.7
				c1.5,0,2.7,1.2,2.7,2.7V180.7z"/>
			<path fill="#BA5B27" d="M83.2,280.7c0,1.5-1.2,2.7-2.7,2.7H55.1c-1.5,0-2.7-1.2-2.7-2.7V168.6c0-1.5,1.2-2.7,2.7-2.7h25.4
				c1.5,0,2.7,1.2,2.7,2.7C83.2,168.6,83.2,280.7,83.2,280.7z"/>
			<path fill="#BA5B27" d="M123.2,280.7c0,1.5-1.2,2.7-2.7,2.7H95.1c-1.5,0-2.7-1.2-2.7-2.7V168.6c0-1.5,1.2-2.7,2.7-2.7h25.4
				c1.5,0,2.7,1.2,2.7,2.7V280.7z"/>
			<path fill="#BA5B27" d="M344.3,277c0,3.8-3.1,6.8-6.8,6.8H293c-3.8,0-6.8-3.1-6.8-6.8V175c0-3.8,3.1-6.8,6.8-6.8h44.4
				c3.8,0,6.8,3.1,6.8,6.8V277z"/>
			<path fill="#BA5B27" d="M93.7,52.9c14.1,0,25.5,11.4,25.5,25.5H93.7V52.9z"/>
			<path fill="#BA5B27" d="M82.4,52.9c-14.1,0-25.5,11.4-25.5,25.5h25.5C82.4,78.4,82.4,52.9,82.4,52.9z"/>
			<path fill="#BA5B27" d="M232.1,66.4h26.6c0-14.9-11.8-27.1-26.6-27.7v-0.7h-68.8v-4.5h-22v40.2h22v-6.7h6.3l15.6,19.5V188h30.9
				V87l16-19.9V66.4z"/>
			<path fill="#BA5B27" d="M162.3,368.2c0-30.3-24.6-54.9-54.9-54.9s-54.9,24.6-54.9,54.9s24.6,54.9,54.9,54.9
				C137.8,423.1,162.3,398.5,162.3,368.2z M71.1,368.2c0-20.1,16.3-36.4,36.4-36.4s36.4,16.3,36.4,36.4s-16.3,36.4-36.4,36.4
				C87.4,404.6,71.1,388.3,71.1,368.2z"/>
			<path fill="#BA5B27" d="M107.5,406c-20.8,0-37.8-16.9-37.8-37.8s16.9-37.8,37.8-37.8s37.8,16.9,37.8,37.8
				C145.3,389,128.3,406,107.5,406z M107.5,340.5c-15.3,0-27.7,12.4-27.7,27.7s12.4,27.7,27.7,27.7c15.3,0,27.7-12.4,27.7-27.7
				C135.1,353,122.7,340.5,107.5,340.5z"/>
			<rect x="151.8" y="368.2" fill="#BA5B27" width="10.1" height="55.1"/>
			<rect x="194.6" y="320.6" fill="#BA5B27" width="330.8" height="40.7"/>
			<rect x="208.2" y="321" fill="#BA5B27" width="3.6" height="14"/>
			<rect x="228.2" y="321" fill="#BA5B27" width="3.6" height="14"/>
			<rect x="248.1" y="321" fill="#BA5B27" width="3.6" height="14"/>
			<rect x="268" y="321" fill="#BA5B27" width="3.6" height="14"/>
			<rect x="287.9" y="321" fill="#BA5B27" width="3.6" height="14"/>
			<rect x="307.8" y="321" fill="#BA5B27" width="3.6" height="14"/>
			<rect x="327.7" y="321" fill="#BA5B27" width="3.6" height="14"/>
			<rect x="347.6" y="321" fill="#BA5B27" width="3.6" height="14"/>
			<rect x="367.6" y="321" fill="#BA5B27" width="3.6" height="14"/>
			<rect x="387.5" y="321" fill="#BA5B27" width="3.6" height="14"/>
			<rect x="407.4" y="321" fill="#BA5B27" width="3.6" height="14"/>
			<rect x="427.3" y="321" fill="#BA5B27" width="3.6" height="14"/>
			<rect x="447.2" y="321" fill="#BA5B27" width="3.6" height="14"/>
			<rect x="467.1" y="321" fill="#BA5B27" width="3.6" height="14"/>
			<rect x="487" y="321" fill="#BA5B27" width="3.6" height="14"/>
			<rect x="507" y="321" fill="#BA5B27" width="3.6" height="14"/>
			<rect x="208.2" y="320.6" fill="#BA5B27" width="3.6" height="25"/>
			<rect x="268" y="320.6" fill="#BA5B27" width="3.6" height="25"/>
			<rect x="327.7" y="320.6" fill="#BA5B27" width="3.6" height="25"/>
			<rect x="387.5" y="320.6" fill="#BA5B27" width="3.6" height="25"/>
			<rect x="447.2" y="320.6" fill="#BA5B27" width="3.6" height="25"/>
			<rect x="507" y="320.6" fill="#BA5B27" width="3.6" height="25"/>
			<path fill="#BA5B27" d="M478.1,283.8h-16.9V64.9c0-13.9,11.3-25.3,25.3-25.3h28.5v16.8h-28.5c-4.6,0-8.4,3.8-8.4,8.4V283.8z"/>
			<path fill="#BA5B27" d="M502.8,283.8h-13.5V106.5c0-11.1,9.1-20.2,20.2-20.2h20.1v13.5h-20.1c-3.7,0-6.7,3-6.7,6.7V283.8z"/>
			<path fill="#BA5B27" d="M522.7,283.8h-10.1V143.5c0-8.4,6.8-15.2,15.2-15.2h12.5v10.1h-12.5c-2.8,0-5.1,2.3-5.1,5.1L522.7,283.8
				L522.7,283.8z"/>
			<circle fill="#BA5B27" cx="261.4" cy="399.6" r="20"/>
			<polygon fill="#BA5B27" points="267.3,409.8 273.2,399.6 267.3,389.4 255.6,389.4 249.7,399.6 255.6,409.8 			"/>
			<circle fill="#BA5B27" cx="211.3" cy="400.5" r="15.1"/>
			<polygon fill="#BA5B27" points="215.7,408.2 220.2,400.5 215.7,392.8 206.8,392.8 202.4,400.5 206.8,408.2 			"/>
			<path fill="#BA5B27" d="M509.8,382.7H306.2v31.9h203.6c8.8,0,16-7.1,16-16C525.8,389.9,518.6,382.7,509.8,382.7z M509.8,406.1
				c-4.1,0-7.4-3.3-7.4-7.4c0-4.1,3.3-7.4,7.4-7.4s7.4,3.3,7.4,7.4C517.2,402.8,513.9,406.1,509.8,406.1z"/>
			<path fill="#BA5B27" d="M229.7,277c0,3.8-3.1,6.8-6.8,6.8h-44.4c-3.8,0-6.8-3.1-6.8-6.8V175c0-3.8,3.1-6.8,6.8-6.8h44.4
				c3.8,0,6.8,3.1,6.8,6.8V277z"/>
		</g>
		<g>
			<g>
				<polygon fill="#465B65" points="76.2,175.1 59.4,175.1 59.4,136 102.3,93 102.3,70.7 119.2,70.7 119.2,100 76.2,142.9 				"/>
				<polygon fill="#465B65" points="116.4,175.1 99.5,175.1 99.5,142.9 56.5,100 56.5,70.7 73.4,70.7 73.4,93 116.4,136 				"/>
				<path fill="#465B65" d="M268.8,76c0-18.6,11-34.7,26.8-42v43.7L315.4,89l19.8-11.3V34.2c15.6,7.5,26.4,23.4,26.4,41.8
					s-10.8,34.4-26.4,41.8v146h-40v-146C279.6,110.4,268.8,94.4,268.8,76z"/>
				<rect x="395.9" y="34" fill="#465B65" width="25.3" height="35.1"/>
				<rect x="400.9" y="59.2" fill="#465B65" width="15.2" height="128.1"/>
				<rect x="389.1" y="170.7" fill="#1D87C9" width="38.8" height="108.1"/>
				<g>
					<path fill="#39A4DD" d="M437.6,276.1c0,1.5-1.2,2.7-2.7,2.7h-52.7c-1.5,0-2.7-1.2-2.7-2.7v-88.3c0-1.5,1.2-2.7,2.7-2.7h52.7
						c1.5,0,2.7,1.2,2.7,2.7V276.1z"/>
				</g>
				<g>
					<path fill="#39A4DD" d="M437.6,175.7c0,1.5-1.2,2.7-2.7,2.7h-52.7c-1.5,0-2.7-1.2-2.7-2.7v-10c0-1.5,1.2-2.7,2.7-2.7h52.7
						c1.5,0,2.7,1.2,2.7,2.7V175.7z"/>
				</g>
				<g>
					<path fill="#E94636" d="M83.2,275.7c0,1.5-1.2,2.7-2.7,2.7H55.1c-1.5,0-2.7-1.2-2.7-2.7V163.6c0-1.5,1.2-2.7,2.7-2.7h25.4
						c1.5,0,2.7,1.2,2.7,2.7C83.2,163.6,83.2,275.7,83.2,275.7z"/>
				</g>
				<g>
					<path fill="#E94636" d="M123.2,275.7c0,1.5-1.2,2.7-2.7,2.7H95.1c-1.5,0-2.7-1.2-2.7-2.7V163.6c0-1.5,1.2-2.7,2.7-2.7h25.4
						c1.5,0,2.7,1.2,2.7,2.7V275.7z"/>
				</g>
				<g>
					<path fill="#39A4DD" d="M344.3,272c0,3.8-3.1,6.8-6.8,6.8H293c-3.8,0-6.8-3.1-6.8-6.8V170c0-3.8,3.1-6.8,6.8-6.8h44.4
						c3.8,0,6.8,3.1,6.8,6.8V272z"/>
				</g>
				<path fill="#465B65" d="M93.7,47.9c14.1,0,25.5,11.4,25.5,25.5H93.7V47.9z"/>
				<path fill="#465B65" d="M82.4,47.9c-14.1,0-25.5,11.4-25.5,25.5h25.5C82.4,73.4,82.4,47.9,82.4,47.9z"/>
				<path fill="#465B65" d="M232.1,61.4h26.6c0-14.9-11.8-27.1-26.6-27.7v-0.7h-68.8v-4.5h-22v40.2h22v-6.7h6.3l15.6,19.5V183h30.9
					V82l16-19.9V61.4z"/>
				<path fill="#FFFFFF" d="M162.3,363.2c0-30.3-24.6-54.9-54.9-54.9s-54.9,24.6-54.9,54.9s24.6,54.9,54.9,54.9
					C137.8,418.1,162.3,393.5,162.3,363.2z M71.1,363.2c0-20.1,16.3-36.4,36.4-36.4s36.4,16.3,36.4,36.4s-16.3,36.4-36.4,36.4
					C87.4,399.6,71.1,383.3,71.1,363.2z"/>
				<path fill="#E94636" d="M107.5,401c-20.8,0-37.8-16.9-37.8-37.8s16.9-37.8,37.8-37.8s37.8,16.9,37.8,37.8
					C145.3,384,128.3,401,107.5,401z M107.5,335.5c-15.3,0-27.7,12.4-27.7,27.7s12.4,27.7,27.7,27.7c15.3,0,27.7-12.4,27.7-27.7
					C135.1,348,122.7,335.5,107.5,335.5z"/>
				<rect x="151.8" y="363.2" fill="#FFFFFF" width="10.1" height="55.1"/>
				<rect x="194.6" y="315.6" fill="#F9A924" width="330.8" height="40.7"/>
				<g>
					<rect x="208.2" y="316" fill="#F58020" width="3.6" height="14"/>
					<rect x="228.2" y="316" fill="#F58020" width="3.6" height="14"/>
					<rect x="248.1" y="316" fill="#F58020" width="3.6" height="14"/>
					<rect x="268" y="316" fill="#F58020" width="3.6" height="14"/>
					<rect x="287.9" y="316" fill="#F58020" width="3.6" height="14"/>
					<rect x="307.8" y="316" fill="#F58020" width="3.6" height="14"/>
					<rect x="327.7" y="316" fill="#F58020" width="3.6" height="14"/>
					<rect x="347.6" y="316" fill="#F58020" width="3.6" height="14"/>
					<rect x="367.6" y="316" fill="#F58020" width="3.6" height="14"/>
					<rect x="387.5" y="316" fill="#F58020" width="3.6" height="14"/>
					<rect x="407.4" y="316" fill="#F58020" width="3.6" height="14"/>
					<rect x="427.3" y="316" fill="#F58020" width="3.6" height="14"/>
					<rect x="447.2" y="316" fill="#F58020" width="3.6" height="14"/>
					<rect x="467.1" y="316" fill="#F58020" width="3.6" height="14"/>
					<rect x="487" y="316" fill="#F58020" width="3.6" height="14"/>
					<rect x="507" y="316" fill="#F58020" width="3.6" height="14"/>
				</g>
				<g>
					<rect x="208.2" y="315.6" fill="#F58020" width="3.6" height="25"/>
					<rect x="268" y="315.6" fill="#F58020" width="3.6" height="25"/>
					<rect x="327.7" y="315.6" fill="#F58020" width="3.6" height="25"/>
					<rect x="387.5" y="315.6" fill="#F58020" width="3.6" height="25"/>
					<rect x="447.2" y="315.6" fill="#F58020" width="3.6" height="25"/>
					<rect x="507" y="315.6" fill="#F58020" width="3.6" height="25"/>
				</g>
				<path fill="#465B65" d="M478.1,278.8h-16.9V59.9c0-13.9,11.3-25.3,25.3-25.3h28.5v16.8h-28.5c-4.6,0-8.4,3.8-8.4,8.4V278.8z"/>
				<path fill="#465B65" d="M502.8,278.8h-13.5V101.5c0-11.1,9.1-20.2,20.2-20.2h20.1v13.5h-20.1c-3.7,0-6.7,3-6.7,6.7V278.8z"/>
				<path fill="#465B65" d="M522.7,278.8h-10.1V138.5c0-8.4,6.8-15.2,15.2-15.2h12.5v10.1h-12.5c-2.8,0-5.1,2.3-5.1,5.1L522.7,278.8
					L522.7,278.8z"/>
				<circle fill="#FFFFFF" cx="261.4" cy="394.6" r="20"/>
				<polygon fill="#465B65" points="267.3,404.8 273.2,394.6 267.3,384.4 255.6,384.4 249.7,394.6 255.6,404.8 				"/>
				<circle fill="#FFFFFF" cx="211.3" cy="395.5" r="15.1"/>
				<polygon fill="#465B65" points="215.7,403.2 220.2,395.5 215.7,387.8 206.8,387.8 202.4,395.5 206.8,403.2 				"/>
				<path fill="#465B65" d="M509.8,377.7H306.2v31.9h203.6c8.8,0,16-7.1,16-16C525.8,384.9,518.6,377.7,509.8,377.7z M509.8,401.1
					c-4.1,0-7.4-3.3-7.4-7.4c0-4.1,3.3-7.4,7.4-7.4s7.4,3.3,7.4,7.4C517.2,397.8,513.9,401.1,509.8,401.1z"/>
				<g>
					<path fill="#E94636" d="M229.7,272c0,3.8-3.1,6.8-6.8,6.8h-44.4c-3.8,0-6.8-3.1-6.8-6.8V170c0-3.8,3.1-6.8,6.8-6.8h44.4
						c3.8,0,6.8,3.1,6.8,6.8V272z"/>
				</g>
			</g>
		</g>
	</g>
</g>
</svg>